# xmcd CD database file
#
# Track frame offsets:
#	182
#	4532
#	11030
#	18202
#	27050
#	31867
#	43647
#	46632
#	57355
#	63717
#	79602
#	88872
#	96087
#	105875
#	113660
#	119745
#	127252
#	135512
#	141752
#	150190
#	161865
#	205490
#	261690
#
# Disc length: 3627 seconds
#
# Revision: 4
# Processed by: cddbd v1.4PL0 Copyright (c) Steve Scherf et al.
# Submitted via: CDex 1.50
#
DISCID=2f0e2917
DTITLE=Statler Brothers - The Complete Lester 'Roadhog' Moran And The Cadillac Cowboys
DYEAR=1994
DGENRE=Country
TTITLE0=The Saturday Morning Radio Show
TTITLE1=i) Little Liza Jane (theme)
TTITLE2=ii) Honky Tonk Girl
TTITLE3=iii) Why Baby Why
TTITLE4=iv) Folsom Prison
TTITLE5=v) Angel Band
TTITLE6=Alive At The Johnny Mack Brown High School
TTITLE7=i) Little Liza Jane (theme)
TTITLE8=ii) Hey Joe
TTITLE9=iii) Fillipino Baby
TTITLE10=iv) Sixteen Tons
TTITLE11=v) Rubber Dolly
TTITLE12=vi) Wildwood Flower
TTITLE13=vii) Medley: Keep On The Sunny Side - Waterloo
TTITLE14=The Saturday Morning Radio Show No. 2
TTITLE15=i) Little Liza Jane (theme)
TTITLE16=ii) Freight Train
TTITLE17=iii) He'll Have To Go
TTITLE18=iv) Medley: Hello Darlin' - Hello Walls - Funny How Time Slips Awa
TTITLE19=v) Church In The Wildwood
TTITLE20=Rainbow Valley Confidential Audition Tape
TTITLE21=Interview with Ralph Emery (pre-taped)
TTITLE22=Phone-in Interview with Ralph Emery
EXTD=YEAR: 1994
EXTT0=
EXTT1=
EXTT2=
EXTT3=
EXTT4=
EXTT5=
EXTT6=
EXTT7=
EXTT8=
EXTT9=
EXTT10=
EXTT11=
EXTT12=
EXTT13=
EXTT14=
EXTT15=
EXTT16=
EXTT17=
EXTT18=
EXTT19=
EXTT20=
EXTT21=
EXTT22=
PLAYORDER=
